<svg width="16" height="16" viewBox="0 0 16 16" fill="none" xmlns="http://www.w3.org/2000/svg">
<g clip-path="url(#clip0_421_10676)">
<path fill-rule="evenodd" clip-rule="evenodd" d="M0.375 8C0.375 3.78883 3.78883 0.375 8 0.375C12.2112 0.375 15.625 3.78883 15.625 8C15.625 12.2112 12.2112 15.625 8 15.625C3.78883 15.625 0.375 12.2112 0.375 8ZM8 1.625C4.47918 1.625 1.625 4.47918 1.625 8C1.625 11.5208 4.47918 14.375 8 14.375C11.5208 14.375 14.375 11.5208 14.375 8C14.375 4.47918 11.5208 1.625 8 1.625ZM8 4.575C8.34518 4.575 8.625 4.85482 8.625 5.2V7.375H10.8C11.1452 7.375 11.425 7.65482 11.425 8C11.425 8.34518 11.1452 8.625 10.8 8.625H8.625V10.8C8.625 11.1452 8.34518 11.425 8 11.425C7.65482 11.425 7.375 11.1452 7.375 10.8V8.625H5.2C4.85482 8.625 4.575 8.34518 4.575 8C4.575 7.65482 4.85482 7.375 5.2 7.375H7.375V5.2C7.375 4.85482 7.65482 4.575 8 4.575Z" fill="#1D1B26"/>
</g>
<defs>
<clipPath id="clip0_421_10676">
<rect width="16" height="16" fill="white"/>
</clipPath>
</defs>
</svg>
