<svg width="16" height="16" viewBox="0 0 16 16" fill="none" xmlns="http://www.w3.org/2000/svg">
<path fill-rule="evenodd" clip-rule="evenodd" d="M2.99114 1.97674C2.43095 1.97674 1.97683 2.43087 1.97683 2.99106C1.97683 3.55124 2.43095 4.00537 2.99114 4.00537C3.55133 4.00537 4.00545 3.55124 4.00545 2.99106C4.00545 2.43087 3.55133 1.97674 2.99114 1.97674ZM1.00008 2.99106C1.00008 1.89143 1.89151 1 2.99114 1C3.92227 1 4.70411 1.63917 4.92186 2.50268H11.0783C11.2961 1.63917 12.0779 1 13.009 1C14.1087 1 15.0001 1.89143 15.0001 2.99106C15.0001 3.92219 14.3609 4.70403 13.4974 4.92178V11.0782C14.3609 11.296 15.0001 12.0778 15.0001 13.0089C15.0001 14.1086 14.1087 15 13.009 15C12.0779 15 11.2961 14.3608 11.0783 13.4973H4.92186C4.70411 14.3608 3.92227 15 2.99114 15C1.89151 15 1.00008 14.1086 1.00008 13.0089C1.00008 12.0778 1.63925 11.296 2.50277 11.0782V4.92178C1.63925 4.70403 1.00008 3.92219 1.00008 2.99106ZM3.47951 4.92178V11.0782C4.18676 11.2566 4.74352 11.8133 4.92186 12.5206H11.0783C11.2566 11.8133 11.8134 11.2566 12.5207 11.0782V4.92178C11.8134 4.74344 11.2566 4.18668 11.0783 3.47943H4.92186C4.74352 4.18668 4.18676 4.74344 3.47951 4.92178ZM13.009 1.97674C12.4488 1.97674 11.9947 2.43087 11.9947 2.99106C11.9947 3.55124 12.4488 4.00537 13.009 4.00537C13.5692 4.00537 14.0233 3.55124 14.0233 2.99106C14.0233 2.43087 13.5692 1.97674 13.009 1.97674ZM2.99114 11.9946C2.43095 11.9946 1.97683 12.4488 1.97683 13.0089C1.97683 13.5691 2.43095 14.0233 2.99114 14.0233C3.55133 14.0233 4.00545 13.5691 4.00545 13.0089C4.00545 12.4488 3.55133 11.9946 2.99114 11.9946ZM13.009 11.9946C12.4488 11.9946 11.9947 12.4488 11.9947 13.0089C11.9947 13.5691 12.4488 14.0233 13.009 14.0233C13.5692 14.0233 14.0233 13.5691 14.0233 13.0089C14.0233 12.4488 13.5692 11.9946 13.009 11.9946Z" fill="#1D1B26"/>
</svg>
