<svg width="16" height="16" viewBox="0 0 16 16" fill="none" xmlns="http://www.w3.org/2000/svg">
<path fill-rule="evenodd" clip-rule="evenodd" d="M1.375 3.98325C1.375 3.63807 1.65482 3.35825 2 3.35825H14C14.3452 3.35825 14.625 3.63807 14.625 3.98325C14.625 4.32842 14.3452 4.60825 14 4.60825H2C1.65482 4.60825 1.375 4.32842 1.375 3.98325ZM3.375 7.98325C3.375 7.63807 3.65482 7.35825 4 7.35825H12C12.3452 7.35825 12.625 7.63807 12.625 7.98325C12.625 8.32842 12.3452 8.60825 12 8.60825H4C3.65482 8.60825 3.375 8.32842 3.375 7.98325ZM5.375 11.9832C5.375 11.6381 5.65482 11.3582 6 11.3582H10C10.3452 11.3582 10.625 11.6381 10.625 11.9832C10.625 12.3284 10.3452 12.6082 10 12.6082H6C5.65482 12.6082 5.375 12.3284 5.375 11.9832Z" fill="#1D1B26"/>
</svg>
