<svg width="16" height="16" viewBox="0 0 16 16" fill="none" xmlns="http://www.w3.org/2000/svg">
<path d="M3.2 9.19999C3.86274 9.19999 4.4 8.66273 4.4 7.99999C4.4 7.33725 3.86274 6.79999 3.2 6.79999C2.53726 6.79999 2 7.33725 2 7.99999C2 8.66273 2.53726 9.19999 3.2 9.19999Z" fill="#1D1B26"/>
<path d="M8 9.19999C8.66274 9.19999 9.2 8.66273 9.2 7.99999C9.2 7.33725 8.66274 6.79999 8 6.79999C7.33726 6.79999 6.8 7.33725 6.8 7.99999C6.8 8.66273 7.33726 9.19999 8 9.19999Z" fill="#1D1B26"/>
<path d="M12.8 9.19999C13.4627 9.19999 14 8.66273 14 7.99999C14 7.33725 13.4627 6.79999 12.8 6.79999C12.1373 6.79999 11.6 7.33725 11.6 7.99999C11.6 8.66273 12.1373 9.19999 12.8 9.19999Z" fill="#1D1B26"/>
</svg>
