<svg width="16" height="16" viewBox="0 0 16 16" fill="none" xmlns="http://www.w3.org/2000/svg">
<path fill-rule="evenodd" clip-rule="evenodd" d="M8.00001 1.625C6.41221 1.625 5.12501 2.91218 5.12501 4.5V6.675H10.875V4.5C10.875 2.91218 9.58782 1.625 8.00001 1.625ZM12.125 6.675V4.5C12.125 2.22182 10.2782 0.375 8.00001 0.375C5.72186 0.375 3.87501 2.22182 3.87501 4.5V6.675H2.40001C1.66823 6.675 1.07501 7.26822 1.07501 8V14.3C1.07501 15.0318 1.66824 15.625 2.40001 15.625H13.6C14.3318 15.625 14.925 15.0318 14.925 14.3V8C14.925 7.26822 14.3318 6.675 13.6 6.675H12.125ZM2.40001 7.925C2.35859 7.925 2.32501 7.95858 2.32501 8V14.3C2.32501 14.3414 2.35859 14.375 2.40001 14.375H13.6C13.6414 14.375 13.675 14.3414 13.675 14.3V8C13.675 7.95858 13.6414 7.925 13.6 7.925H2.40001ZM8.00001 9.475C8.34519 9.475 8.62501 9.75482 8.62501 10.1V12.2C8.62501 12.5452 8.34519 12.825 8.00001 12.825C7.65483 12.825 7.37501 12.5452 7.37501 12.2V10.1C7.37501 9.75482 7.65483 9.475 8.00001 9.475Z" fill="#1D1B26"/>
</svg>
