<svg width="16" height="16" viewBox="0 0 16 16" fill="none" xmlns="http://www.w3.org/2000/svg">
<path fill-rule="evenodd" clip-rule="evenodd" d="M7.33333 2.625C4.73299 2.625 2.625 4.73299 2.625 7.33333C2.625 9.93367 4.73299 12.0417 7.33333 12.0417C8.603 12.0417 9.75529 11.5391 10.6021 10.7221C10.6191 10.6998 10.6377 10.6784 10.6581 10.6581C10.6784 10.6377 10.6998 10.6191 10.7221 10.6021C11.5391 9.75529 12.0417 8.603 12.0417 7.33333C12.0417 4.73299 9.93367 2.625 7.33333 2.625ZM11.9654 11.0815C12.7948 10.0577 13.2917 8.75356 13.2917 7.33333C13.2917 4.04264 10.624 1.375 7.33333 1.375C4.04264 1.375 1.375 4.04264 1.375 7.33333C1.375 10.624 4.04264 13.2917 7.33333 13.2917C8.75356 13.2917 10.0577 12.7948 11.0815 11.9654L13.5581 14.4419C13.8021 14.686 14.1979 14.686 14.4419 14.4419C14.686 14.1979 14.686 13.8021 14.4419 13.5581L11.9654 11.0815Z" fill="#1D1B26"/>
</svg>
