<svg width="16" height="16" viewBox="0 0 16 16" fill="none" xmlns="http://www.w3.org/2000/svg">
<g clip-path="url(#clip0_421_10680)">
<path fill-rule="evenodd" clip-rule="evenodd" d="M5.80311 0.699573C5.91283 0.499424 6.12293 0.375 6.35117 0.375H9.67201C9.90216 0.375 10.1137 0.501492 10.2226 0.704248L11.1738 2.475H15C15.3452 2.475 15.625 2.75482 15.625 3.1C15.625 3.44518 15.3452 3.725 15 3.725H13.875V15C13.875 15.3452 13.5952 15.625 13.25 15.625H2.75002C2.40484 15.625 2.12502 15.3452 2.12502 15V3.725H1.00002C0.654845 3.725 0.375023 3.44518 0.375023 3.1C0.375023 2.75482 0.654845 2.475 1.00002 2.475H4.82988L5.80311 0.699573ZM6.25537 2.475H9.75484L9.29827 1.625H6.72131L6.25537 2.475ZM3.37502 3.725V14.375H12.625V3.725H3.37502ZM6.60002 5.975C6.9452 5.975 7.22502 6.25482 7.22502 6.6V11.15C7.22502 11.4952 6.9452 11.775 6.60002 11.775C6.25484 11.775 5.97502 11.4952 5.97502 11.15V6.6C5.97502 6.25482 6.25484 5.975 6.60002 5.975ZM9.40002 5.975C9.7452 5.975 10.025 6.25482 10.025 6.6V11.15C10.025 11.4952 9.7452 11.775 9.40002 11.775C9.05484 11.775 8.77502 11.4952 8.77502 11.15V6.6C8.77502 6.25482 9.05484 5.975 9.40002 5.975Z" fill="#1D1B26"/>
</g>
<defs>
<clipPath id="clip0_421_10680">
<rect width="16" height="16" fill="white"/>
</clipPath>
</defs>
</svg>
