<svg width="16" height="16" viewBox="0 0 16 16" fill="none" xmlns="http://www.w3.org/2000/svg">
<g clip-path="url(#clip0_421_10672)">
<path fill-rule="evenodd" clip-rule="evenodd" d="M2.84399 2.84402C4.16286 1.52518 5.98663 0.708344 7.99998 0.708344C10.0133 0.708344 11.8371 1.52518 13.156 2.84402L12.714 3.28596L13.156 2.84402C14.4748 4.16289 15.2916 5.98666 15.2916 8.00001C15.2916 10.0134 14.4748 11.8371 13.156 13.156C11.8371 14.4748 10.0133 15.2917 7.99998 15.2917C5.98663 15.2917 4.16286 14.4748 2.84399 13.156L3.28593 12.714L2.84399 13.156C1.52515 11.8371 0.708313 10.0134 0.708313 8.00001C0.708313 5.98666 1.52515 4.16289 2.84399 2.84403L2.84399 2.84402ZM7.99998 1.95834C6.33146 1.95834 4.8219 2.6339 3.72787 3.72791C2.63386 4.82194 1.95831 6.33149 1.95831 8.00001C1.95831 9.66853 2.63387 11.1781 3.72788 12.2721C4.8219 13.3661 6.33147 14.0417 7.99998 14.0417C9.66849 14.0417 11.1781 13.3661 12.2721 12.2721C13.3661 11.1781 14.0416 9.66852 14.0416 8.00001C14.0416 6.3315 13.3661 4.82193 12.2721 3.72791C11.1781 2.6339 9.6685 1.95834 7.99998 1.95834ZM11.7753 5.55807C12.0193 5.80215 12.0193 6.19787 11.7753 6.44195L7.77525 10.442C7.65804 10.5592 7.49907 10.625 7.33331 10.625C7.16755 10.625 7.00858 10.5592 6.89137 10.442L4.89137 8.44195C4.64729 8.19787 4.64729 7.80215 4.89137 7.55807C5.13545 7.31399 5.53118 7.31399 5.77525 7.55807L7.33331 9.11613L10.8914 5.55807C11.1354 5.31399 11.5312 5.31399 11.7753 5.55807Z" fill="#1D1B26"/>
</g>
<defs>
<clipPath id="clip0_421_10672">
<rect width="16" height="16" fill="white"/>
</clipPath>
</defs>
</svg>
