<svg width="16" height="16" viewBox="0 0 16 16" fill="none" xmlns="http://www.w3.org/2000/svg">
<path fill-rule="evenodd" clip-rule="evenodd" d="M11.5579 0.891395C11.8019 0.647336 12.1976 0.647325 12.4417 0.891371L15.1084 3.5577C15.2256 3.67491 15.2915 3.83389 15.2915 3.99966C15.2915 4.16542 15.2257 4.3244 15.1084 4.44162L13.4423 6.10779C13.4421 6.10796 13.4419 6.10812 13.4418 6.10828C13.4416 6.10845 13.4415 6.10861 13.4413 6.10878L5.77511 13.775C5.68786 13.8622 5.57674 13.9217 5.45575 13.9459L2.12242 14.6125C1.9175 14.6535 1.70566 14.5894 1.5579 14.4416C1.41014 14.2939 1.346 14.082 1.38698 13.8771L2.05365 10.5438C2.07785 10.4228 2.13733 10.3116 2.22458 10.2244L9.88091 2.5683C9.8843 2.56475 9.88774 2.56123 9.89123 2.55774C9.89472 2.55425 9.89825 2.5508 9.9018 2.54741L11.5579 0.891395ZM10.3333 3.88368L3.71707 10.4997L5.49984 12.2825L12.116 5.66634L10.3333 3.88368ZM12.9998 4.78246L11.2172 2.99981L11.9998 2.21719L13.7826 3.99971L12.9998 4.78246ZM4.34323 12.8936L2.79657 13.203L3.1059 11.6563L4.34323 12.8936Z" fill="#1D1B26"/>
</svg>
