<svg width="16" height="16" viewBox="0 0 16 16" fill="none" xmlns="http://www.w3.org/2000/svg">
<g clip-path="url(#clip0_421_10692)">
<path fill-rule="evenodd" clip-rule="evenodd" d="M2.60831 2.60831C3.9875 1.22914 5.8946 0.375 8 0.375C10.1054 0.375 12.0125 1.22914 13.3917 2.60831L12.9832 3.01683L13.3917 2.60831C14.7708 3.9875 15.625 5.8946 15.625 8C15.625 10.1054 14.7708 12.0125 13.3917 13.3917C12.0125 14.7708 10.1054 15.625 8 15.625C5.8946 15.625 3.9875 14.7708 2.60831 13.3917L3.01683 12.9832L2.60831 13.3917C1.22914 12.0125 0.375 10.1054 0.375 8C0.375 5.8946 1.22914 3.9875 2.60831 2.60831L2.60831 2.60831ZM8 1.625C6.23944 1.625 4.64654 2.33786 3.49219 3.4922C2.33785 4.64655 1.625 6.23944 1.625 8C1.625 9.76056 2.33786 11.3535 3.49219 12.5078C4.64654 13.6621 6.23944 14.375 8 14.375C9.76056 14.375 11.3535 13.6621 12.5078 12.5078C13.6621 11.3535 14.375 9.76056 14.375 8C14.375 6.23944 13.6621 4.64654 12.5078 3.49219M5.275 6.11866C5.275 4.61369 6.49503 3.39366 8 3.39366C9.50497 3.39366 10.725 4.61369 10.725 6.11866C10.725 7.40858 9.82874 8.48916 8.625 8.77165V9.61866C8.625 9.96384 8.34518 10.2437 8 10.2437C7.65482 10.2437 7.375 9.96384 7.375 9.61866V8.21867C7.375 7.87349 7.65482 7.59367 8 7.59367C8.81462 7.59367 9.475 6.93328 9.475 6.11866C9.475 5.30405 8.81462 4.64366 8 4.64366C7.18538 4.64366 6.525 5.30405 6.525 6.11866C6.525 6.46384 6.24518 6.74366 5.9 6.74366C5.55482 6.74366 5.275 6.46384 5.275 6.11866ZM8 11.5686C8.34518 11.5686 8.625 11.8484 8.625 12.1936V12.2162C8.625 12.5614 8.34518 12.8412 8 12.8412C7.65482 12.8412 7.375 12.5614 7.375 12.2162V12.1936C7.375 11.8484 7.65482 11.5686 8 11.5686Z" fill="#1D1B26"/>
</g>
<defs>
<clipPath id="clip0_421_10692">
<rect width="16" height="16" fill="white"/>
</clipPath>
</defs>
</svg>
