<svg width="16" height="16" viewBox="0 0 16 16" fill="none" xmlns="http://www.w3.org/2000/svg">
<g clip-path="url(#clip0_421_10674)">
<path fill-rule="evenodd" clip-rule="evenodd" d="M2.13816 1.39752C2.19854 1.1077 2.45397 0.899994 2.75002 0.899994H13.25C13.5461 0.899994 13.8015 1.1077 13.8619 1.39752L15.6119 9.79752C15.6206 9.83945 15.625 9.88216 15.625 9.92499V14.475C15.625 14.8202 15.3452 15.1 15 15.1H1.00002C0.654841 15.1 0.375019 14.8202 0.375019 14.475V9.92499C0.375019 9.88216 0.379421 9.83945 0.388156 9.79752L2.13816 1.39752ZM3.25823 2.14999L1.76865 9.29999H4.8182C5.09357 9.29999 5.33649 9.48021 5.41634 9.74374L5.91824 11.4H10.0818L10.5837 9.74374C10.6636 9.48021 10.9065 9.29999 11.1818 9.29999H14.2314L12.7418 2.14999H3.25823ZM14.375 10.55H11.6455L11.1436 12.2063C11.0637 12.4698 10.8208 12.65 10.5455 12.65H5.45457C5.17921 12.65 4.93629 12.4698 4.85643 12.2063L4.35453 10.55H1.62502V13.85H14.375V10.55ZM5.62502 4.32499C5.62502 3.97982 5.90484 3.69999 6.25002 3.69999H9.75002C10.0952 3.69999 10.375 3.97982 10.375 4.32499C10.375 4.67017 10.0952 4.94999 9.75002 4.94999H6.25002C5.90484 4.94999 5.62502 4.67017 5.62502 4.32499ZM4.57502 7.12499C4.57502 6.77982 4.85484 6.49999 5.20002 6.49999H10.8C11.1452 6.49999 11.425 6.77982 11.425 7.12499C11.425 7.47017 11.1452 7.74999 10.8 7.74999H5.20002C4.85484 7.74999 4.57502 7.47017 4.57502 7.12499Z" fill="#1D1B26"/>
</g>
<defs>
<clipPath id="clip0_421_10674">
<rect width="16" height="16" fill="white"/>
</clipPath>
</defs>
</svg>
