<svg width="16" height="16" viewBox="0 0 16 16" fill="none" xmlns="http://www.w3.org/2000/svg">
<path fill-rule="evenodd" clip-rule="evenodd" d="M3.33333 2.625C2.94213 2.625 2.625 2.94213 2.625 3.33333V12.6667C2.625 13.0579 2.94213 13.375 3.33333 13.375H12.6667C13.0579 13.375 13.375 13.0579 13.375 12.6667V3.33333C13.375 2.94213 13.0579 2.625 12.6667 2.625H3.33333ZM1.375 3.33333C1.375 2.25178 2.25178 1.375 3.33333 1.375H12.6667C13.7482 1.375 14.625 2.25178 14.625 3.33333V12.6667C14.625 13.7482 13.7482 14.625 12.6667 14.625H3.33333C2.25178 14.625 1.375 13.7482 1.375 12.6667V3.33333Z" fill="#1D1B26"/>
<path d="M4.25 4.25H5.75V11.25H4.25V4.25Z" fill="#1D1B26"/>
<path d="M7.25 4.25H8.75V9.25H7.25V4.25Z" fill="#1D1B26"/>
<path d="M10.25 4.25H11.75V11.25H10.25V4.25Z" fill="#1D1B26"/>
</svg>
