<svg width="16" height="16" viewBox="0 0 16 16" fill="none" xmlns="http://www.w3.org/2000/svg">
<g clip-path="url(#clip0_421_10688)">
<path fill-rule="evenodd" clip-rule="evenodd" d="M0.374985 8C0.374985 3.78883 3.78881 0.375 7.99998 0.375C12.2112 0.375 15.625 3.78883 15.625 8C15.625 10.1223 14.7579 12.042 13.3588 13.4244C13.3392 13.4463 13.3182 13.4669 13.2957 13.486C11.9241 14.8103 10.0572 15.625 7.99998 15.625C5.96366 15.625 4.11377 14.8268 2.74615 13.5261C2.69301 13.4884 2.64616 13.4426 2.60727 13.3907C1.22802 12.0109 0.374985 10.1051 0.374985 8ZM3.76556 12.7656C4.89154 13.7668 6.37474 14.375 7.99998 14.375C9.62525 14.375 11.1085 13.7668 12.2344 12.7656C12.0044 11.4087 10.8227 10.375 9.39998 10.375H6.59998C5.17729 10.375 3.99561 11.4087 3.76556 12.7656ZM13.2121 11.6716C12.5924 10.1765 11.1192 9.125 9.39998 9.125H6.59998C4.8808 9.125 3.40753 10.1765 2.78784 11.6716C2.05529 10.6336 1.62498 9.36707 1.62498 8C1.62498 4.47918 4.47917 1.625 7.99998 1.625C11.5208 1.625 14.375 4.47918 14.375 8C14.375 9.36706 13.9447 10.6336 13.2121 11.6716ZM5.62498 5.9C5.62498 4.58833 6.68832 3.525 7.99998 3.525C9.31165 3.525 10.375 4.58833 10.375 5.9C10.375 7.21167 9.31165 8.275 7.99998 8.275C6.68832 8.275 5.62498 7.21167 5.62498 5.9ZM7.99998 4.775C7.37867 4.775 6.87498 5.27869 6.87498 5.9C6.87498 6.52131 7.37867 7.025 7.99998 7.025C8.6213 7.025 9.12498 6.52131 9.12498 5.9C9.12498 5.27869 8.6213 4.775 7.99998 4.775Z" fill="#1D1B26"/>
</g>
<defs>
<clipPath id="clip0_421_10688">
<rect width="16" height="16" fill="white"/>
</clipPath>
</defs>
</svg>
