<svg width="16" height="16" viewBox="0 0 16 16" fill="none" xmlns="http://www.w3.org/2000/svg">
<path fill-rule="evenodd" clip-rule="evenodd" d="M8.02099 2.70834C8.36617 2.7088 8.64563 2.98898 8.64518 3.33416L8.63989 7.37501H12.6667C13.0119 7.37501 13.2917 7.65483 13.2917 8.00001C13.2917 8.34519 13.0119 8.62501 12.6667 8.62501H8.63826L8.63298 12.6675C8.63252 13.0127 8.35234 13.2921 8.00716 13.2917C7.66198 13.2912 7.38253 13.011 7.38298 12.6659L7.38826 8.62501H3.33334C2.98817 8.62501 2.70834 8.34519 2.70834 8.00001C2.70834 7.65483 2.98817 7.37501 3.33334 7.37501H7.38989L7.39518 3.33253C7.39563 2.98735 7.67582 2.70789 8.02099 2.70834Z" fill="#1D1B26"/>
</svg>
