<svg width="16" height="16" viewBox="0 0 16 16" fill="none" xmlns="http://www.w3.org/2000/svg">
<g clip-path="url(#clip0_421_10690)">
<path fill-rule="evenodd" clip-rule="evenodd" d="M5.96149 0.66921C6.24765 0.589998 6.55004 0.723045 6.68497 0.987531C6.92969 1.46722 7.4273 1.7935 8 1.7935C8.5727 1.7935 9.07031 1.46722 9.31503 0.987531C9.44996 0.723045 9.75235 0.589998 10.0385 0.66921C11.2334 0.999984 12.3097 1.61388 13.191 2.43329C13.3932 2.6213 13.4481 2.91972 13.326 3.16736C13.2295 3.36305 13.175 3.58352 13.175 3.81849C13.175 4.63311 13.8354 5.29349 14.65 5.29349L14.6705 5.29335C14.9468 5.2894 15.1929 5.46736 15.2757 5.73099C15.5028 6.45389 15.625 7.22251 15.625 8.01849C15.625 8.54388 15.5718 9.05742 15.4702 9.55392C15.4061 9.86753 15.1154 10.082 14.7968 10.0507C14.7485 10.0459 14.6996 10.0435 14.65 10.0435C13.8354 10.0435 13.175 10.7039 13.175 11.5185C13.175 11.8812 13.3051 12.2119 13.5219 12.4689C13.7284 12.7135 13.7165 13.0746 13.4946 13.3053C12.5947 14.2403 11.4576 14.9468 10.179 15.3274C9.85286 15.4245 9.50897 15.2429 9.40535 14.9187C9.21503 14.3234 8.65689 13.8935 8 13.8935C7.34311 13.8935 6.78497 14.3234 6.59465 14.9187C6.49103 15.2429 6.14714 15.4245 5.82099 15.3274C4.54236 14.9468 3.40526 14.2403 2.50542 13.3053C2.28344 13.0746 2.27163 12.7135 2.47807 12.4689C2.69489 12.2119 2.825 11.8812 2.825 11.5185C2.825 10.7039 2.16462 10.0435 1.35 10.0435C1.30044 10.0435 1.25148 10.0459 1.20321 10.0507C0.884644 10.082 0.593917 9.86753 0.529773 9.55392C0.428222 9.05742 0.375 8.54387 0.375 8.01849C0.375 7.22252 0.497177 6.4539 0.724251 5.73099C0.807058 5.46736 1.05315 5.2894 1.32945 5.29335L1.35 5.29349C2.16462 5.29349 2.825 4.63311 2.825 3.81849C2.825 3.58352 2.77051 3.36305 2.67403 3.16736C2.55194 2.91972 2.60682 2.6213 2.80902 2.43329C3.69026 1.61388 4.76658 0.999984 5.96149 0.66921ZM3.97259 3.07651C4.03934 3.31278 4.075 3.56178 4.075 3.81849C4.075 5.16828 3.09361 6.28885 1.80545 6.5056C1.68759 6.99004 1.625 7.4966 1.625 8.01849C1.625 8.28763 1.64164 8.55261 1.6739 8.81255C3.0262 8.9727 4.075 10.1231 4.075 11.5185C4.075 11.9745 3.96264 12.405 3.76431 12.783C4.32128 13.2786 4.96534 13.6777 5.67027 13.9546C6.14807 13.1689 7.01213 12.6435 8 12.6435C8.98787 12.6435 9.85193 13.1689 10.3297 13.9546C11.0347 13.6777 11.6787 13.2786 12.2357 12.783C12.0374 12.405 11.925 11.9745 11.925 11.5185C11.925 10.1231 12.9738 8.97271 14.3261 8.81255C14.3584 8.55261 14.375 8.28763 14.375 8.01849C14.375 7.4966 14.3124 6.99005 14.1945 6.5056C12.9064 6.28885 11.925 5.16828 11.925 3.81849C11.925 3.56178 11.9607 3.31278 12.0274 3.07651C11.4678 2.61983 10.8295 2.25658 10.1364 2.01011C9.63774 2.639 8.86646 3.0435 8 3.0435C7.13354 3.0435 6.36226 2.639 5.86362 2.01011C5.17049 2.25658 4.53222 2.61982 3.97259 3.07651ZM4.925 8.01846C4.925 6.32018 6.30172 4.94346 8 4.94346C9.69828 4.94346 11.075 6.32018 11.075 8.01846C11.075 9.71674 9.69828 11.0935 8 11.0935C6.30172 11.0935 4.925 9.71674 4.925 8.01846ZM8 6.19346C6.99208 6.19346 6.175 7.01054 6.175 8.01846C6.175 9.02638 6.99208 9.84346 8 9.84346C9.00792 9.84346 9.825 9.02638 9.825 8.01846C9.825 7.01054 9.00792 6.19346 8 6.19346Z" fill="#1D1B26"/>
</g>
<defs>
<clipPath id="clip0_421_10690">
<rect width="16" height="16" fill="white"/>
</clipPath>
</defs>
</svg>
