<svg width="16" height="16" viewBox="0 0 16 16" fill="none" xmlns="http://www.w3.org/2000/svg">
<path fill-rule="evenodd" clip-rule="evenodd" d="M3.33333 2.625C2.94213 2.625 2.625 2.94213 2.625 3.33333V5.375H7.375V2.625H3.33333ZM3.33333 1.375C2.25178 1.375 1.375 2.25178 1.375 3.33333V12.6667C1.375 13.7482 2.25178 14.625 3.33333 14.625H12.6667C13.7482 14.625 14.625 13.7482 14.625 12.6667V3.33333C14.625 2.25178 13.7482 1.375 12.6667 1.375H3.33333ZM8.625 2.625V5.375H13.375V3.33333C13.375 2.94213 13.0579 2.625 12.6667 2.625H8.625ZM13.375 6.625H8.625V9.375H13.375V6.625ZM13.375 10.625H8.625V13.375H12.6667C13.0579 13.375 13.375 13.0579 13.375 12.6667V10.625ZM7.375 13.375V10.625H2.625V12.6667C2.625 13.0579 2.94213 13.375 3.33333 13.375H7.375ZM2.625 9.375H7.375V6.625H2.625V9.375Z" fill="#1D1B26"/>
</svg>
