<svg width="16" height="16" viewBox="0 0 16 16" fill="none" xmlns="http://www.w3.org/2000/svg">
<g clip-path="url(#clip0_421_10686)">
<path fill-rule="evenodd" clip-rule="evenodd" d="M8 1.625C4.47918 1.625 1.625 4.47918 1.625 8C1.625 11.5208 4.47918 14.375 8 14.375C11.5208 14.375 14.375 11.5208 14.375 8C14.375 4.47918 11.5208 1.625 8 1.625ZM0.375 8C0.375 3.78883 3.78883 0.375 8 0.375C12.2112 0.375 15.625 3.78883 15.625 8C15.625 12.2112 12.2112 15.625 8 15.625C3.78883 15.625 0.375 12.2112 0.375 8ZM8 4.625C6.13604 4.625 4.625 6.13604 4.625 8C4.625 9.86396 6.13604 11.375 8 11.375C9.86396 11.375 11.375 9.86396 11.375 8C11.375 6.13604 9.86396 4.625 8 4.625ZM3.375 8C3.375 5.44568 5.44568 3.375 8 3.375C10.5543 3.375 12.625 5.44568 12.625 8C12.625 10.5543 10.5543 12.625 8 12.625C5.44568 12.625 3.375 10.5543 3.375 8ZM8 7.625C7.79289 7.625 7.625 7.79289 7.625 8C7.625 8.20711 7.79289 8.375 8 8.375C8.20711 8.375 8.375 8.20711 8.375 8C8.375 7.79289 8.20711 7.625 8 7.625ZM6.375 8C6.375 7.10254 7.10254 6.375 8 6.375C8.89746 6.375 9.625 7.10254 9.625 8C9.625 8.89746 8.89746 9.625 8 9.625C7.10254 9.625 6.375 8.89746 6.375 8Z" fill="#1D1B26"/>
</g>
<defs>
<clipPath id="clip0_421_10686">
<rect width="16" height="16" fill="white"/>
</clipPath>
</defs>
</svg>
